<?xml version="1.0" standalone="no"?>
<!DOCTYPE svg PUBLIC "-//W3C//DTD SVG 1.1//EN" "http://www.w3.org/Graphics/SVG/1.1/DTD/svg11.dtd" >
<svg xmlns="http://www.w3.org/2000/svg">
<metadata>
Created by FontPrep 20130207 at Tue Mar  4 16:29:53 2014
 By Victor R Menacho
Copyright (C) 2004 Hoefler &#38; Frere-Jones Typography, Inc. www.typography.com
</metadata>
<defs>
<font id="f2958f1e225dafa10c691aa0d2a35203" horiz-adv-x='1024' >
  <font-face 
    font-family="Whitney-MediumItalic"
    font-weight="500"
    font-style="italic"
    font-stretch="normal"
    units-per-em="2048"
    panose-1="0 0 0 0 0 0 0 0 0 0"
    ascent="1638"
    descent="-410"
    x-height="977"
    cap-height="1413"
    bbox="-279 -410 2103 1929.02"
    underline-thickness="40"
    underline-position="-252"
    slope="-12"
    unicode-range="U+0020-FB02"
  />
<missing-glyph horiz-adv-x="1024" 
 />
    <glyph glyph-name=".notdef" horiz-adv-x="1024" 
 />
    <glyph glyph-name=".null" horiz-adv-x="0" 
 />
    <glyph glyph-name="nonmarkingreturn" horiz-adv-x="681" 
 />
    <glyph glyph-name="space" unicode=" " horiz-adv-x="430" 
 />
    <glyph glyph-name="exclam" unicode="!" horiz-adv-x="557" 
d="M342 244l-39 -244h-205l39 244h205zM537 1413l-203 -967l-125 -26l106 993h222z" />
    <glyph glyph-name="quotedbl" unicode="&#x22;" horiz-adv-x="837" 
d="M479 1384l-119 -426l-102 25l12 401h209zM852 1384l-119 -426l-102 25l12 401h209z" />
    <glyph glyph-name="numbersign" unicode="#" horiz-adv-x="1355" 
d="M879 877h-344l-58 -369h342zM1270 877h-246l-59 -369h239l27 -158h-291l-55 -354h-146l56 354h-344l-58 -364l-141 30l53 334h-221v158h246l57 369h-235l-27 157h289l55 355h147l-55 -355h342l58 365l141 -31l-53 -334h221v-157z" />
    <glyph glyph-name="dollar" unicode="$" horiz-adv-x="1062" 
d="M639 1249q-127 0 -197 -59t-69 -154q0 -59 39 -106t135 -96l129 413q-12 2 -37 2zM487 137q129 0 216 70t88 180q0 72 -40 122t-143 101l-37 -118q-37 -117 -73 -236l-37 -119h26zM961 406q1 -193 -139 -305t-347 -111q-41 0 -59 2l-76 -242l-131 29l76 233
q-143 33 -260 99l49 163q143 -88 262 -116l158 506q-145 70 -216 150t-71 206q0 168 120 271t322 104q49 0 72 -2l45 153l131 -30l-45 -144q102 -25 195 -76l-52 -161q-80 55 -196 90q-137 -442 -137 -445q166 -80 232 -165t67 -209z" />
    <glyph glyph-name="percent" unicode="%" horiz-adv-x="1769" 
d="M1532 467q0 207 -123 207q-88 0 -143 -109q-56 -109 -56 -231q-1 -225 125 -225q86 0 142 107q55 108 55 251zM1338 -16q-282 0 -280 356q0 174 103 316t243 142t210 -90q70 -92 69 -266q0 -174 -102 -316q-103 -142 -243 -142zM303 918q0 -207 123 -207q88 1 143 109
t55 230q1 227 -124 226q-86 0 -142 -108t-55 -250zM1534 1366l-1094 -1380l-139 32l1094 1381zM432 586q-280 0 -280 356q0 174 102 316t242 142t210 -90q70 -92 70 -266t-102 -316t-242 -142z" />
    <glyph glyph-name="ampersand" unicode="&#x26;" horiz-adv-x="1339" 
d="M244 340q0 -96 60 -154t171 -59q180 0 344 190q-65 89 -201 265l-67 88q-307 -98 -307 -330zM53 328q0 315 408 460q-113 156 -113 300t110 248t284 104t337 -86l-53 -166q-150 92 -295 92q-88 0 -144 -50q-57 -50 -57 -139t113 -239l285 -375q84 147 137 342l158 -37
q-78 -254 -195 -436l238 -313l-195 -45l-158 207q-209 -221 -458 -222q-180 1 -291 97t-111 258z" />
    <glyph glyph-name="quotesingle" unicode="'" horiz-adv-x="464" 
d="M479 1384l-119 -426l-102 25l12 401h209z" />
    <glyph glyph-name="parenleft" unicode="(" horiz-adv-x="831" 
d="M336 485q0 -163 74 -315t231 -324l-182 -39q-156 158 -236 314t-80 352q0 627 666 1014v-180q-473 -305 -473 -822z" />
    <glyph glyph-name="parenright" unicode=")" horiz-adv-x="831" 
d="M735 813q0 -629 -665 -1016v180q471 307 471 822q0 165 -74 317t-231 324l182 39q156 -159 236 -315t81 -351z" />
    <glyph glyph-name="asterisk" unicode="*" horiz-adv-x="819" 
d="M821 1165l-223 -106l119 -219l-53 -35l-168 178l-170 -178l-52 35l117 219l-221 106l20 60l242 -43l29 241h67l29 -241l244 43z" />
    <glyph glyph-name="plus" unicode="+" horiz-adv-x="1171" 
d="M1081 616h-395l-63 -407h-160l63 407h-395l25 152h395l63 408h160l-63 -408h395z" />
    <glyph glyph-name="comma" unicode="," horiz-adv-x="464" 
d="M340 244l-293 -516l-98 24l180 492h211z" />
    <glyph glyph-name="hyphen" unicode="-" horiz-adv-x="724" 
d="M637 670l-25 -174h-501l22 174h504z" />
    <glyph glyph-name="period" unicode="." horiz-adv-x="464" 
d="M295 244l-37 -244h-205l37 244h205z" />
    <glyph glyph-name="slash" unicode="/" horiz-adv-x="1097" 
d="M1198 1397l-1221 -1657l-167 35l1220 1657z" />
    <glyph glyph-name="zero" unicode="0" horiz-adv-x="1202" 
d="M956 866q0 188 -65 288q-66 99 -184 99q-170 0 -282 -210t-112 -525q0 -188 65 -288t183 -99q170 0 283 210q112 210 112 525zM1143 877q0 -391 -171 -647t-425 -257q-195 1 -307 147t-111 388q0 393 170 648t426 255q193 0 305 -146t113 -388z" />
    <glyph glyph-name="one" unicode="1" horiz-adv-x="700" 
d="M657 1389l-217 -1389h-178l191 1200l-295 -104v143l350 150h149z" />
    <glyph glyph-name="two" unicode="2" horiz-adv-x="1058" 
d="M1024 1069q0 -117 -62 -215t-225 -250l-469 -442h611v-162h-875l23 141l618 586q102 98 150 171q47 73 47 160t-58 138t-159 51q-184 0 -387 -153v180q193 137 389 137q197 0 297 -94t100 -248z" />
    <glyph glyph-name="three" unicode="3" horiz-adv-x="1011" 
d="M983 1092q0 -150 -89 -240t-226 -129q236 -86 235 -313q0 -199 -139 -318q-140 -119 -354 -119t-408 115l55 164q180 -119 339 -119t243 71t84 191q0 256 -344 256h-43v158h92q166 0 269 70t104 188q1 88 -57 136t-166 48q-180 0 -365 -129v172q179 117 371 117
q192 -1 296 -85t103 -234z" />
    <glyph glyph-name="four" unicode="4" horiz-adv-x="1165" 
d="M725 467l115 715l-580 -715h465zM1114 467l-24 -150h-226l-49 -317h-164l51 317h-653l19 134l753 933h215l-147 -917h225z" />
    <glyph glyph-name="five" unicode="5" horiz-adv-x="1030" 
d="M1014 1227h-557l-86 -359q281 -44 417 -152t138 -304q0 -196 -138 -316q-138 -121 -353 -121q-214 0 -415 113l56 164q193 -117 377 -117q131 0 211 74t79 190q0 143 -129 221t-430 109l152 655h678v-157z" />
    <glyph glyph-name="six" unicode="6" horiz-adv-x="1124" 
d="M285 477q-1 -162 69 -255t201 -93t221 92t90 238q0 233 -233 233q-170 1 -342 -112q-6 -49 -6 -103zM677 848q173 0 270 -95t97 -293t-145 -342t-351 -144t-322 130q-116 131 -115 361q1 371 237 621t633 329v-162q-251 -51 -417 -181t-234 -324q174 100 347 100z" />
    <glyph glyph-name="seven" unicode="7" horiz-adv-x="1064" 
d="M215 1225v159h893l-23 -137l-743 -1261l-168 41l711 1198h-670z" />
    <glyph glyph-name="eight" unicode="8" horiz-adv-x="1132" 
d="M1026 398q0 -188 -136 -306q-136 -117 -356 -117q-220 -1 -340 99q-122 100 -122 254q0 272 336 417q-176 111 -176 279t121 278q123 110 315 110t303 -92q111 -91 110 -235q0 -242 -272 -372q217 -127 217 -315zM252 348q0 -104 80 -164t214 -61q134 0 217 70t83 169
q0 100 -60 164t-229 142q-305 -109 -305 -320zM668 784q238 106 237 287q0 88 -62 139q-62 52 -178 52t-187 -62q-70 -62 -70 -146q0 -83 58 -143q59 -59 202 -127z" />
    <glyph glyph-name="nine" unicode="9" horiz-adv-x="1124" 
d="M903 907q0 162 -69 255q-70 93 -201 93t-221 -97t-90 -245q0 -233 233 -233q170 0 340 111q8 51 8 116zM854 621q-172 -97 -344 -97t-269 96t-97 292q0 198 146 349t351 151t321 -132q116 -131 115 -360q1 -375 -239 -623t-641 -328v162q249 51 417 177t240 313z" />
    <glyph glyph-name="colon" unicode=":" horiz-adv-x="483" 
d="M305 244l-37 -244h-205l37 244h205zM420 977l-37 -244h-205l37 244h205z" />
    <glyph glyph-name="semicolon" unicode=";" horiz-adv-x="483" 
d="M330 244l-293 -516l-98 24l180 492h211zM430 977l-37 -244h-205l37 244h205z" />
    <glyph glyph-name="less" unicode="&#x3c;" horiz-adv-x="1171" 
d="M979 168l-842 455l21 139l989 455l-31 -183l-782 -348l672 -346z" />
    <glyph glyph-name="equal" unicode="=" horiz-adv-x="1208" 
d="M1044 381h-911l27 164h911zM1116 840h-911l26 164h912z" />
    <glyph glyph-name="greater" unicode="&#x3e;" horiz-adv-x="1171" 
d="M256 1217l842 -455l-21 -139l-989 -455l31 182l782 348l-672 346z" />
    <glyph glyph-name="question" unicode="?" horiz-adv-x="991" 
d="M496 244l-39 -244h-205l39 244h205zM805 1082q0 94 -56 141t-157 47q-180 0 -389 -148v185q197 133 420 133q174 0 274 -88t100 -243t-100 -256t-360 -204l-52 -203l-123 -26l27 334l60 24q211 88 283 150q72 60 73 154z" />
    <glyph glyph-name="at" unicode="@" horiz-adv-x="1691" 
d="M670 90q-82 0 -146 66q-63 66 -63 184q0 250 142 413t325 162q129 0 276 -53l-71 -428q-13 -80 -13 -128t35 -82t96 -34q113 0 184 115t70 316q0 285 -163 437t-418 152q-305 0 -523 -237q-217 -238 -217 -594q0 -295 162 -445t415 -150t458 101l12 -73
q-211 -98 -465 -99q-309 0 -491 175q-181 175 -181 489q0 375 243 641t595 266q301 0 481 -180t180 -481q0 -236 -101 -384t-259 -149q-104 0 -174 48t-90 141q-86 -101 -151 -145q-66 -44 -148 -44zM907 784q-109 0 -197 -118t-87 -297q0 -141 102 -142q90 0 242 193
l61 346q-55 18 -121 18z" />
    <glyph glyph-name="A" unicode="A" horiz-adv-x="1308" 
d="M883 590l-109 600l-299 -600h408zM1184 27l-189 -41l-80 438h-522l-211 -424h-198l731 1419h192z" />
    <glyph glyph-name="B" unicode="B" horiz-adv-x="1079" 
d="M434 158q172 0 268 68t97 191q0 245 -307 247h-121l-82 -506h145zM838 1069q0 86 -58 136t-178 50h-139l-70 -438h117q148 -1 238 63t90 189zM610 1413q202 0 308 -86t106 -223t-69 -227t-185 -134q215 -90 215 -302q0 -213 -157 -327t-416 -114h-332l223 1413h307z" />
    <glyph glyph-name="C" unicode="C" horiz-adv-x="1226" 
d="M825 1270q-225 0 -367 -202t-142 -448t98 -362q98 -115 276 -115t363 129v-182q-178 -115 -381 -115q-256 0 -403 159q-146 159 -146 441q0 347 202 605t511 258q233 0 387 -135l-58 -187q-154 154 -340 154z" />
    <glyph glyph-name="D" unicode="D" horiz-adv-x="1339" 
d="M1081 817q0 213 -113 322q-114 109 -331 108h-172l-172 -1081h160q287 0 457 171t171 480zM1276 838q0 -378 -230 -608t-616 -230h-350l223 1413h354q291 -1 455 -151t164 -424z" />
    <glyph glyph-name="E" unicode="E" horiz-adv-x="956" 
d="M801 825v-172h-428l-78 -485h539l-27 -168h-727l223 1413h709l-27 -168h-520l-66 -420h402z" />
    <glyph glyph-name="F" unicode="F" horiz-adv-x="909" 
d="M780 803v-172h-411l-101 -631h-188l223 1413h686l-26 -168h-498l-70 -442h385z" />
    <glyph glyph-name="G" unicode="G" horiz-adv-x="1351" 
d="M679 -25q-245 0 -403 161t-157 439q0 223 93 421t264 320t378 122q262 0 420 -119l-55 -186q-158 137 -381 137t-374 -200t-151 -474q0 -221 108 -337q107 -116 273 -116t285 70l59 387h-301v172h512l-104 -666q-221 -131 -466 -131z" />
    <glyph glyph-name="H" unicode="H" horiz-adv-x="1343" 
d="M1329 1413l-223 -1413h-188l102 653h-647l-105 -653h-188l223 1413h189l-93 -588h650l92 588h188z" />
    <glyph glyph-name="I" unicode="I" horiz-adv-x="528" 
d="M502 1413l-223 -1413h-189l223 1413h189z" />
    <glyph glyph-name="J" unicode="J" horiz-adv-x="739" 
d="M174 -12q-96 0 -174 18v172q212 -60 306 25q54 49 73 168l166 1042h188l-166 -1051q-31 -194 -127 -284t-266 -90z" />
    <glyph glyph-name="K" unicode="K" horiz-adv-x="1173" 
d="M1245 1413l-672 -661l492 -723l-193 -43l-491 731l-113 -717h-188l223 1413h189l-101 -631l627 631h227z" />
    <glyph glyph-name="L" unicode="L" horiz-adv-x="890" 
d="M758 0h-678l223 1413h189l-199 -1245h465v-168z" />
    <glyph glyph-name="M" unicode="M" horiz-adv-x="1748" 
d="M1661 1413l-113 -1413h-182l92 1137l-594 -1143h-145l-232 1143l-266 -1137h-174l334 1413h235l224 -1159l590 1159h231z" />
    <glyph glyph-name="N" unicode="N" horiz-adv-x="1339" 
d="M1325 1413l-223 -1413h-117l-555 1143l-180 -1143h-170l223 1413h186l504 -1036l162 1036h170z" />
    <glyph glyph-name="O" unicode="O" horiz-adv-x="1425" 
d="M1165 823q0 215 -93 335t-265 120q-213 0 -352 -197t-140 -491q-1 -215 93 -335t264 -120q215 1 354 197t139 491zM1358 834q0 -369 -200 -615t-494 -246q-262 0 -402 167q-139 167 -139 440q0 368 200 614t494 246q261 0 401 -167t140 -439z" />
    <glyph glyph-name="P" unicode="P" horiz-adv-x="1054" 
d="M868 1018q0 229 -284 229h-119l-78 -506h115q366 1 366 277zM1059 1040q0 -215 -155 -340t-435 -125h-111l-90 -575h-188l223 1413h272q233 0 359 -95q125 -96 125 -278z" />
    <glyph glyph-name="Q" unicode="Q" horiz-adv-x="1425" 
d="M1165 823q0 215 -93 335t-265 120q-213 0 -352 -197t-140 -491q-1 -215 93 -336t264 -121q215 -1 354 197t139 493zM123 580q0 368 200 614t494 246q261 0 401 -167t140 -451t-132 -506q-132 -220 -352 -300l343 -139l-60 -170l-612 262q-227 97 -325 233t-97 378z" />
    <glyph glyph-name="R" unicode="R" horiz-adv-x="1122" 
d="M868 1038q0 209 -274 209h-129l-74 -477h135q170 0 256 70t86 198zM1059 1065q1 -174 -99 -287t-282 -151l328 -598l-195 -43l-338 624h-108l-97 -610h-188l223 1413h283q223 0 348 -87t125 -261z" />
    <glyph glyph-name="S" unicode="S" horiz-adv-x="1030" 
d="M651 1272q-131 0 -189 -60t-58 -140q0 -79 46 -132q48 -53 196 -140t212 -179q66 -92 66 -215q0 -201 -134 -314q-134 -112 -344 -112t-399 118l53 178q184 -135 371 -135q115 0 189 65t73 159q0 94 -42 145q-41 51 -187 140t-218 174t-73 210q0 174 122 287
q123 113 321 113t339 -99l-53 -176q-160 113 -291 113z" />
    <glyph glyph-name="T" unicode="T" horiz-adv-x="1148" 
d="M1221 1245h-430l-197 -1245h-188l196 1245h-420l27 168h1012v-168z" />
    <glyph glyph-name="U" unicode="U" horiz-adv-x="1304" 
d="M610 -27q-220 0 -347 114q-126 114 -126 331q0 63 15 153l133 842h188l-135 -852q-8 -55 -8 -125q0 -139 74 -216t219 -77q303 0 360 367l143 903h189l-150 -942q-41 -250 -188 -374t-367 -124z" />
    <glyph glyph-name="V" unicode="V" horiz-adv-x="1286" 
d="M1378 1413l-739 -1419h-156l-284 1392l194 41l211 -1159l572 1145h202z" />
    <glyph glyph-name="W" unicode="W" horiz-adv-x="2009" 
d="M2083 1413l-633 -1413h-162l-182 1137l-547 -1137h-158l-180 1386l199 41l119 -1116l520 1102h190l166 -1102l469 1102h199z" />
    <glyph glyph-name="X" unicode="X" horiz-adv-x="1226" 
d="M1274 1413l-520 -670l340 -716l-195 -41l-270 598l-441 -584h-213l578 741l-303 645l190 41l238 -528l383 514h213z" />
    <glyph glyph-name="Y" unicode="Y" horiz-adv-x="1241" 
d="M1341 1413l-620 -852l-88 -561h-189l91 561l-342 825l194 41l268 -690l473 676h213z" />
    <glyph glyph-name="Z" unicode="Z" horiz-adv-x="1181" 
d="M1020 162v-162h-997l22 137l924 1114h-688v162h944l-23 -137l-923 -1114h741z" />
    <glyph glyph-name="bracketleft" unicode="[" horiz-adv-x="837" 
d="M633 -72v-141h-565l256 1626h555l-21 -139h-383l-211 -1346h369z" />
    <glyph glyph-name="backslash" unicode="\" horiz-adv-x="1097" 
d="M1174 -227l-164 -35l-967 1657l164 35z" />
    <glyph glyph-name="bracketright" unicode="]" horiz-adv-x="837" 
d="M238 1274v139h565l-256 -1626h-557l22 141h381l213 1346h-368z" />
    <glyph glyph-name="asciicircum" unicode="^" 
d="M846 1135l-96 -21l-154 152l-203 -146h-119l252 289h172z" />
    <glyph glyph-name="underscore" unicode="_" 
d="M846 -72l-23 -141h-936l23 141h936z" />
    <glyph glyph-name="grave" unicode="`" 
d="M745 1120h-114l-234 260l219 50z" />
    <glyph glyph-name="a" unicode="a" horiz-adv-x="1009" 
d="M610 844q-145 0 -255 -146q-109 -146 -109 -356q0 -209 135 -209q111 0 289 197l75 491q-63 23 -135 23zM352 -20q-134 0 -210 86q-75 86 -74 245q0 301 168 489t397 189q135 0 307 -59l-106 -672v-258h-156l-10 162q-182 -182 -316 -182z" />
    <glyph glyph-name="b" unicode="b" horiz-adv-x="1021" 
d="M424 135q141 0 248 135q106 134 106 354t-151 220q-117 0 -279 -166l-82 -514q68 -29 158 -29zM660 997q132 0 214 -90t82 -256q0 -295 -164 -479t-393 -184q-149 0 -327 61l221 1401l180 29l-96 -619q150 137 283 137z" />
    <glyph glyph-name="c" unicode="c" horiz-adv-x="872" 
d="M561 840q-121 0 -216 -132t-95 -311q0 -125 61 -193t176 -69q115 0 248 92v-166q-129 -81 -291 -81t-268 107q-104 108 -104 298q0 252 144 432t355 180q162 0 289 -84l-55 -165q-123 92 -244 92z" />
    <glyph glyph-name="d" unicode="d" horiz-adv-x="1024" 
d="M600 842q-142 0 -248 -135t-106 -355t151 -219q117 0 279 166l82 514q-68 29 -158 29zM844 0h-158l-10 141q-158 -162 -318 -161q-126 0 -208 90t-82 256q0 295 163 479q164 184 385 184q86 0 166 -24l76 485l180 29l-194 -1246v-233z" />
    <glyph glyph-name="e" unicode="e" horiz-adv-x="933" 
d="M248 385q0 -256 227 -256q147 0 322 127v-164q-163 -112 -343 -112t-282 101t-102 294q0 274 140 448t325 174q157 0 243 -100t86 -276q0 -80 -14 -152h-598q-4 -53 -4 -84zM526 864q-80 0 -148 -70t-102 -192h414q10 262 -164 262z" />
    <glyph glyph-name="f" unicode="f" horiz-adv-x="602" 
d="M616 1311q-121 0 -143 -140l-33 -194h183v-148h-207l-185 -1183l-180 -27l189 1210h-138l25 148h137l37 225q23 135 99 197q77 61 218 61q45 0 87 -4v-151q-55 6 -89 6z" />
    <glyph glyph-name="g" unicode="g" horiz-adv-x="1021" 
d="M600 842q-142 0 -248 -140t-106 -362q0 -188 153 -188q125 0 279 163l80 498q-68 29 -158 29zM358 -373q-194 0 -352 76l51 154q154 -82 303 -82q227 0 275 256l18 104q-150 -137 -287 -137t-218 86t-80 235q0 297 164 484q165 186 393 186q149 0 327 -61l-135 -860
q-35 -225 -149 -333q-116 -108 -310 -108z" />
    <glyph glyph-name="h" unicode="h" horiz-adv-x="1013" 
d="M932 778q0 -37 -4 -73l-113 -705h-176l106 666q4 33 5 55q0 119 -101 119q-55 0 -142 -68t-173 -176l-92 -596h-176l229 1450l180 29l-110 -682q193 201 337 200q110 1 170 -57t60 -162z" />
    <glyph glyph-name="i" unicode="i" horiz-adv-x="471" 
d="M399 977l-153 -977h-176l153 977h176zM479 1290q0 -49 -34 -83q-34 -33 -83 -33q-48 0 -82 34t-34 82q0 49 34 83t82 34t83 -34q34 -34 34 -83z" />
    <glyph glyph-name="j" unicode="j" horiz-adv-x="471" 
d="M-61 -219q96 0 114 123l170 1073h176l-174 -1100q-20 -131 -86 -190t-180 -60q-63 0 -111 15v153q39 -14 91 -14zM479 1290q0 -49 -34 -83q-34 -33 -83 -33q-48 0 -82 34t-34 82q0 49 34 83t82 34t83 -34q34 -34 34 -83z" />
    <glyph glyph-name="k" unicode="k" horiz-adv-x="931" 
d="M332 569l401 408h225l-454 -438l336 -523l-189 -30l-329 524l-80 -510h-176l229 1450l180 29z" />
    <glyph glyph-name="l" unicode="l" horiz-adv-x="471" 
d="M479 1479l-233 -1479h-176l227 1450z" />
    <glyph glyph-name="m" unicode="m" horiz-adv-x="1568" 
d="M739 740q0 42 -18 71q-19 29 -73 29t-141 -68t-173 -176l-92 -596h-176l116 743v234h158l10 -195q197 215 352 215q207 0 220 -196q182 197 335 196q111 0 170 -57t60 -162q0 -33 -6 -73l-113 -705h-176l106 666q6 31 7 55q0 119 -103 119q-49 0 -135 -68t-168 -174
l-94 -598h-178l106 666q6 32 6 74z" />
    <glyph glyph-name="n" unicode="n" horiz-adv-x="1013" 
d="M932 778q0 -37 -4 -73l-113 -705h-176l106 666q4 37 5 55q0 119 -101 119q-55 0 -142 -68t-173 -176l-92 -596h-176l116 743v234h158l10 -195q197 215 352 215q110 1 170 -57t60 -162z" />
    <glyph glyph-name="o" unicode="o" horiz-adv-x="1001" 
d="M752 558q0 158 -56 228t-149 70q-135 0 -216 -139t-81 -299t55 -230t150 -69q135 0 216 140q81 141 81 299zM930 580q0 -250 -138 -425t-350 -175q-170 0 -270 110t-100 305q0 250 138 426t347 176q173 0 273 -110t100 -307z" />
    <glyph glyph-name="p" unicode="p" horiz-adv-x="1024" 
d="M426 135q141 0 248 135q106 134 106 354t-151 220q-117 0 -279 -166l-82 -514q68 -29 158 -29zM182 977h158l10 -141q158 162 318 161q127 0 209 -90t81 -256q0 -295 -164 -479t-384 -184q-86 0 -166 24l-58 -364l-180 -29l176 1124v234z" />
    <glyph glyph-name="q" unicode="q" horiz-adv-x="1021" 
d="M600 842q-142 0 -248 -135t-106 -355t151 -219q117 0 279 166l82 514q-68 29 -158 29zM364 -20q-132 0 -214 90t-82 256q0 295 163 479q164 184 394 184q149 0 327 -61l-202 -1282l-181 -27l78 498q-150 -137 -283 -137z" />
    <glyph glyph-name="r" unicode="r" horiz-adv-x="679" 
d="M182 977h158l10 -219q68 100 162 169t193 70v-178q-117 -12 -215 -80t-158 -168l-90 -571h-176l116 743v234z" />
    <glyph glyph-name="s" unicode="s" horiz-adv-x="794" 
d="M438 842q-68 0 -106 -33t-39 -79q0 -46 30 -75q29 -29 147 -80t181 -115t64 -171q1 -147 -99 -229t-274 -80q-174 0 -332 112l53 160q156 -119 320 -119q74 0 119 36t45 90t-35 88q-36 33 -152 87t-176 113q-59 59 -59 175t91 196t240 80t296 -78l-54 -164
q-129 86 -260 86z" />
    <glyph glyph-name="t" unicode="t" horiz-adv-x="657" 
d="M641 829h-233l-86 -555q-4 -29 -5 -53q0 -86 105 -86q51 0 92 10v-147q-61 -14 -152 -14q-229 0 -229 190q0 37 8 86l90 569h-139l25 148h137l51 326l182 26l-55 -352h209v-148z" />
    <glyph glyph-name="u" unicode="u" horiz-adv-x="1013" 
d="M831 0h-157l-10 195q-197 -215 -353 -215q-111 0 -170 57t-59 162q0 37 4 73l113 705h176l-107 -666q-4 -37 -4 -55q0 -119 101 -119q55 0 142 68t173 176l92 596h176l-117 -744v-233z" />
    <glyph glyph-name="v" unicode="v" horiz-adv-x="901" 
d="M932 977l-477 -981h-160l-174 967l178 28l115 -766l336 752h182z" />
    <glyph glyph-name="w" unicode="w" horiz-adv-x="1433" 
d="M1456 977l-459 -977h-143l-100 739l-332 -739h-141l-154 963l176 28l88 -733l322 719h161l95 -719l311 719h176z" />
    <glyph glyph-name="x" unicode="x" horiz-adv-x="915" 
d="M920 977l-371 -477l239 -488l-176 -26l-172 374l-268 -360h-197l396 504l-221 459l176 28l153 -348l246 334h195z" />
    <glyph glyph-name="y" unicode="y" horiz-adv-x="921" 
d="M72 -219q100 0 161 110l70 127l-182 945l178 28l125 -766l348 752h182l-540 -1081q-76 -152 -161 -210t-212 -59q-27 0 -64 8v156q51 -10 95 -10z" />
    <glyph glyph-name="z" unicode="z" horiz-adv-x="888" 
d="M737 145v-145h-743l22 137l619 694h-461v146h694l-24 -137l-617 -695h510z" />
    <glyph glyph-name="braceleft" unicode="{" horiz-adv-x="970" 
d="M780 1278q-164 0 -164 -174v-193q0 -147 -68 -219t-192 -96v-4q92 -23 134 -66q42 -42 42 -110t-40 -213t-41 -185q0 -94 129 -94h188v-137h-236q-118 0 -186 51t-67 154q0 53 40 196q41 143 41 199q0 147 -184 148h-65v133h100q123 0 180 66t58 204v188q0 287 344 287
h223l-21 -135h-215z" />
    <glyph glyph-name="bar" unicode="|" horiz-adv-x="542" 
d="M354 -354l-164 -27v1833l164 27v-1833z" />
    <glyph glyph-name="braceright" unicode="}" horiz-adv-x="970" 
d="M649 610q-174 40 -174 176q0 66 40 211t40 185q0 96 -129 96h-188v135h237q119 0 185 -51t67 -154q0 -53 -41 -195t-41 -198q0 -147 184 -147h66v-133h-98q-125 0 -183 -66t-57 -205v-190q0 -287 -344 -287h-223l20 137h215q164 0 164 172v195q0 145 68 218t192 97v4z
" />
    <glyph glyph-name="asciitilde" unicode="~" horiz-adv-x="837" 
d="M561 457q-59 0 -143 49t-119 49q-45 0 -82 -104l-117 24q66 233 207 234q59 0 143 -49t119 -50q45 0 82 105l117 -25q-63 -233 -207 -233z" />
    <glyph glyph-name="nbspace" unicode="&#xa0;" horiz-adv-x="215" 
 />
    <glyph glyph-name="exclamdown" unicode="&#xa1;" horiz-adv-x="557" 
d="M418 993l-107 -993h-221l203 967zM528 1413l-39 -244h-204l39 244h204z" />
    <glyph glyph-name="cent" unicode="&#xa2;" horiz-adv-x="935" 
d="M289 617q0 -171 104 -236l205 657q-143 -2 -226 -126t-83 -295zM541 346q143 0 276 88v-155q-143 -86 -301 -86q-31 0 -47 2l-68 -215l-131 30l70 219q-104 45 -166 143t-61 232q0 244 142 415t376 171h14l66 213l131 -29q-66 -203 -66 -205q82 -20 156 -79l-49 -156
q-76 66 -158 88l-211 -676h27z" />
    <glyph glyph-name="sterling" unicode="&#xa3;" horiz-adv-x="1073" 
d="M872 1411q104 0 201 -31l-43 -161q-82 31 -176 30q-147 0 -231 -194l-125 -297h342v-154h-408l-190 -446h688v-158h-893l22 150l193 454h-152l25 154h192l136 317q76 178 169 257t250 79z" />
    <glyph glyph-name="currency" unicode="&#xa4;" horiz-adv-x="1157" 
d="M63 457v139h189q4 117 22 203h-170l23 139h184q74 211 217 342t339 131t337 -123l-51 -166q-145 133 -299 133q-117 0 -211 -86t-149 -231h428v-139h-469q-16 -92 -21 -203h449l-23 -139h-418q40 -328 308 -328q134 0 290 115v-170q-146 -100 -334 -100t-305 128
q-117 129 -141 355h-195z" />
    <glyph glyph-name="yen" unicode="&#xa5;" horiz-adv-x="1183" 
d="M125 170v139h352l25 156h-346l24 139h312l-302 754l179 41l258 -684l454 669h201l-555 -780h297v-139h-350l-25 -156h340l-24 -139h-338l-27 -170h-172l27 170h-330z" />
    <glyph glyph-name="brokenbar" unicode="&#xa6;" horiz-adv-x="1024" 
d="M51 -410v2048h922v-2048h-922z" />
    <glyph glyph-name="section" unicode="&#xa7;" horiz-adv-x="1075" 
d="M121 640q0 104 84 220l151 -35q-68 -92 -67 -163q0 -43 32 -69t117 -48l133 -33q143 -35 210 -94t67 -173t-95 -189q-95 -74 -269 -74t-334 77l47 148q156 -84 315 -84q80 0 124 34t44 84q0 51 -41 79t-141 53l-103 26q-139 37 -207 87q-67 50 -67 154zM1020 744
q0 -104 -84 -220l-152 35q68 91 68 149t-32 84t-118 48l-133 32q-143 34 -210 94t-67 174t96 188q95 75 268 75t335 -78l-47 -147q-156 84 -315 84q-80 0 -124 -34t-44 -84t40 -78t142 -54l102 -27q139 -37 207 -87t68 -154z" />
    <glyph glyph-name="dieresis" unicode="&#xa8;" 
d="M485 1128h-202l32 207h203zM852 1128h-203l33 207h203z" />
    <glyph glyph-name="copyright" unicode="&#xa9;" horiz-adv-x="1636" 
d="M872 295q-172 0 -276 115t-104 302t105 303t275 115q129 0 244 -71l-20 -139q-111 84 -223 84q-113 0 -179 -80t-66 -211t68 -211t178 -80t236 90l20 -133q-121 -84 -258 -84zM1468 707q0 309 -174 484t-444 175t-443 -175t-173 -484t174 -485t444 -175q270 -1 443 175
t173 485zM1559 709q0 -328 -198 -532t-512 -204t-510 202t-196 530q0 327 198 531t512 204t510 -202t196 -529z" />
    <glyph glyph-name="ordfeminine" unicode="&#xaa;" horiz-adv-x="780" 
d="M700 733h-112l-10 84q-128 -98 -218 -98t-139 44t-49 122q0 231 442 266l4 23q20 115 -100 114q-104 0 -227 -57v110q133 53 241 54q256 0 218 -230l-50 -297v-135zM305 893q-1 -70 73 -70t197 86l25 158q-295 -33 -295 -174zM657 457h-546l20 121h526v-121z" />
    <glyph glyph-name="guillemotleft" unicode="&#xab;" horiz-adv-x="1079" 
d="M645 977l-379 -498l209 -456l-147 -33l-256 499l399 488h174zM1065 977l-379 -498l211 -456l-149 -33l-254 499l397 488h174z" />
    <glyph glyph-name="logicalnot" unicode="&#xac;" horiz-adv-x="1171" 
d="M1081 616h-950l25 152h950z" />
    <glyph glyph-name="registered" unicode="&#xae;" horiz-adv-x="1153" 
d="M739 1083q0 78 -92 78h-69v-155h65q96 -1 96 77zM578 934v-217h-89v526h158q84 0 134 -41t50 -112q0 -113 -106 -146l154 -215l-93 -20l-157 225h-51zM1049 964q0 196 -114 308t-286 112q-173 0 -285 -112t-112 -308t114 -309t286 -113t284 114q113 112 113 308z
M1114 964q0 -212 -130 -344t-336 -132t-334 130q-128 132 -128 344t130 345t335 133t334 -132t129 -344z" />
    <glyph glyph-name="macron" unicode="&#xaf;" 
d="M827 1178h-505l22 147h506z" />
    <glyph glyph-name="degree" unicode="&#xb0;" horiz-adv-x="874" 
d="M729 1052q0 91 -58 152q-57 62 -145 62t-145 -62t-57 -152q0 -92 57 -150t144 -58t146 58q58 59 58 150zM868 1053q0 -150 -96 -245t-246 -95t-246 95t-96 245q0 151 96 247t246 96t246 -96q96 -97 96 -247z" />
    <glyph glyph-name="plusminus" unicode="&#xb1;" horiz-adv-x="1165" 
d="M1090 317h-226l-49 -317h-164l51 317h-653l19 134l761 944l162 -41l-717 -887h451l57 354l170 37l-63 -391h225z" />
    <glyph glyph-name="twosuperior" unicode="&#xb2;" horiz-adv-x="1024" 
d="M51 -410v2048h922v-2048h-922z" />
    <glyph glyph-name="threesuperior" unicode="&#xb3;" horiz-adv-x="1024" 
d="M51 -410v2048h922v-2048h-922z" />
    <glyph glyph-name="acute" unicode="&#xb4;" 
d="M825 1380l-311 -260h-139l221 310z" />
    <glyph glyph-name="mu" unicode="&#xb5;" horiz-adv-x="1171" 
d="M887 252l-281 338l-389 -340l-96 112l393 336l-283 332l121 105l279 -336l387 338l96 -113l-391 -334l285 -334z" />
    <glyph glyph-name="paragraph" unicode="&#xb6;" horiz-adv-x="1097" 
d="M145 909q0 215 154 345t418 130h352l-219 -1384h-158l199 1247h-150l-47 -295l-133 -407q-195 8 -305 100t-111 264z" />
    <glyph glyph-name="periodcentered" unicode="&#xb7;" horiz-adv-x="464" 
d="M332 459h-205l37 243h205z" />
    <glyph glyph-name="cedilla" unicode="&#xb8;" 
d="M530 -152l-286 -221h-131l200 273z" />
    <glyph glyph-name="onesuperior" unicode="&#xb9;" horiz-adv-x="1024" 
d="M51 -410v2048h922v-2048h-922z" />
    <glyph glyph-name="ordmasculine" unicode="&#xba;" horiz-adv-x="788" 
d="M516 1288q-94 0 -148 -87t-54 -185t37 -144q38 -46 102 -45q94 0 148 87q54 88 54 186t-38 143t-101 45zM676 457h-565l20 121h545v-121zM442 721q-118 0 -190 74t-72 220t98 263t231 117q134 0 207 -75q72 -76 72 -222t-98 -262t-248 -115z" />
    <glyph glyph-name="guillemotright" unicode="&#xbb;" horiz-adv-x="1079" 
d="M12 0l381 496l-211 458l150 33l254 -500l-398 -487h-176zM434 0l379 496l-211 458l150 33l254 -500l-398 -487h-174z" />
    <glyph glyph-name="onequarter" unicode="&#xbc;" horiz-adv-x="1024" 
d="M51 -410v2048h922v-2048h-922z" />
    <glyph glyph-name="onehalf" unicode="&#xbd;" horiz-adv-x="1024" 
d="M51 -410v2048h922v-2048h-922z" />
    <glyph glyph-name="threequarters" unicode="&#xbe;" horiz-adv-x="1024" 
d="M51 -410v2048h922v-2048h-922z" />
    <glyph glyph-name="questiondown" unicode="&#xbf;" horiz-adv-x="991" 
d="M565 1169l39 244h205l-39 -244h-205zM256 330q0 -94 56 -140q56 -47 157 -47q180 0 389 148v-185q-197 -133 -420 -133q-174 0 -274 88t-100 243t100 256t360 204l51 203l123 26l-26 -334l-60 -24q-212 -87 -284 -149t-72 -156z" />
    <glyph glyph-name="Agrave" unicode="&#xc0;" horiz-adv-x="1308" 
d="M874 1511h-114l-234 261l219 49zM883 590l-109 600l-299 -600h408zM1184 27l-189 -41l-80 438h-522l-211 -424h-198l731 1419h192z" />
    <glyph glyph-name="Aacute" unicode="&#xc1;" horiz-adv-x="1308" 
d="M1210 1772l-311 -261h-139l221 310zM883 590l-109 600l-299 -600h408zM1184 27l-189 -41l-80 438h-522l-211 -424h-198l731 1419h192z" />
    <glyph glyph-name="Acircumflex" unicode="&#xc2;" horiz-adv-x="1308" 
d="M1098 1507l-97 -20l-153 151l-203 -145h-119l252 289h172zM883 590l-109 600l-299 -600h408zM1184 27l-189 -41l-80 438h-522l-211 -424h-198l731 1419h192z" />
    <glyph glyph-name="Atilde" unicode="&#xc3;" horiz-adv-x="1308" 
d="M965 1518q-59 0 -143 49t-120 49q-45 0 -81 -105l-117 25q66 233 207 233q59 0 143 -49t119 -49q45 0 82 105l116 -25q-66 -233 -206 -233zM883 590l-109 600l-299 -600h408zM1184 27l-189 -41l-80 438h-522l-211 -424h-198l731 1419h192z" />
    <glyph glyph-name="Adieresis" unicode="&#xc4;" horiz-adv-x="1308" 
d="M737 1520h-202l32 206h203zM1104 1520h-203l33 206h203zM883 590l-109 600l-299 -600h408zM1184 27l-189 -41l-80 438h-522l-211 -424h-198l731 1419h192z" />
    <glyph glyph-name="Aring" unicode="&#xc5;" horiz-adv-x="1308" 
d="M963 1716q0 51 -34 87t-84 36t-84 -35t-34 -87t34 -87t84 -35t84 35t34 86zM1057 1716q1 -92 -59 -150t-152 -58t-152 58t-61 149q0 91 60 153q61 62 153 61t152 -61t59 -152zM883 590l-109 600l-299 -600h408zM1184 27l-189 -41l-80 438h-522l-211 -424h-198l731 1419
h192z" />
    <glyph glyph-name="AE" unicode="&#xc6;" horiz-adv-x="1740" 
d="M1067 1278l-504 -688h395zM1585 825v-172h-428l-78 -485h539l-27 -168h-727l68 424h-490l-311 -424h-203l1041 1413h827l-27 -168h-520l-65 -420h401z" />
    <glyph glyph-name="Ccedilla" unicode="&#xc7;" horiz-adv-x="1226" 
d="M733 -152l-287 -221h-131l201 273zM825 1270q-225 0 -367 -202t-142 -448t98 -362q98 -115 276 -115t363 129v-182q-178 -115 -381 -115q-256 0 -403 159q-146 159 -146 441q0 347 202 605t511 258q233 0 387 -135l-58 -187q-154 154 -340 154z" />
    <glyph glyph-name="Egrave" unicode="&#xc8;" horiz-adv-x="956" 
d="M776 1511h-114l-234 261l219 49zM801 825v-172h-428l-78 -485h539l-27 -168h-727l223 1413h709l-27 -168h-520l-66 -420h402z" />
    <glyph glyph-name="Eacute" unicode="&#xc9;" horiz-adv-x="956" 
d="M987 1772l-311 -261h-139l221 310zM801 825v-172h-428l-78 -485h539l-27 -168h-727l223 1413h709l-27 -168h-520l-66 -420h402z" />
    <glyph glyph-name="Ecircumflex" unicode="&#xca;" horiz-adv-x="956" 
d="M950 1526l-96 -21l-154 152l-202 -146h-119l252 289h172zM801 825v-172h-428l-78 -485h539l-27 -168h-727l223 1413h709l-27 -168h-520l-66 -420h402z" />
    <glyph glyph-name="Edieresis" unicode="&#xcb;" horiz-adv-x="956" 
d="M590 1520h-203l33 206h203zM956 1520h-202l32 206h203zM801 825v-172h-428l-78 -485h539l-27 -168h-727l223 1413h709l-27 -168h-520l-66 -420h402z" />
    <glyph glyph-name="Igrave" unicode="&#xcc;" horiz-adv-x="528" 
d="M473 1511h-115l-233 261l219 49zM502 1413l-223 -1413h-189l223 1413h189z" />
    <glyph glyph-name="Iacute" unicode="&#xcd;" horiz-adv-x="528" 
d="M795 1772l-312 -261h-139l221 310zM502 1413l-223 -1413h-189l223 1413h189z" />
    <glyph glyph-name="Icircumflex" unicode="&#xce;" horiz-adv-x="528" 
d="M694 1507l-96 -20l-154 151l-202 -145h-119l252 289h172zM502 1413l-223 -1413h-189l223 1413h189z" />
    <glyph glyph-name="Idieresis" unicode="&#xcf;" horiz-adv-x="528" 
d="M334 1520h-203l33 206h203zM700 1520h-202l32 206h203zM502 1413l-223 -1413h-189l223 1413h189z" />
    <glyph glyph-name="Eth" unicode="&#xd0;" horiz-adv-x="1400" 
d="M1143 817q0 213 -114 322t-331 108h-172l-67 -422h356l-29 -172h-354l-78 -487h160q287 0 458 171t171 480zM1337 838q0 -378 -230 -608t-615 -230h-351l103 653h-154v172h182l93 588h352q293 0 457 -150q163 -151 163 -425z" />
    <glyph glyph-name="Ntilde" unicode="&#xd1;" horiz-adv-x="1339" 
d="M719 1597q-45 0 -82 -104l-117 25q66 233 207 233q59 0 143 -49t119 -49q45 0 82 104l117 -24q-66 -233 -207 -234q-59 0 -143 49t-119 49zM1325 1413l-223 -1413h-117l-555 1143l-180 -1143h-170l223 1413h186l504 -1036l162 1036h170z" />
    <glyph glyph-name="Ograve" unicode="&#xd2;" horiz-adv-x="1425" 
d="M946 1530h-115l-233 260l219 49zM1165 823q0 215 -93 335t-265 120q-213 0 -352 -197t-140 -491q-1 -215 93 -335t264 -120q215 1 354 197t139 491zM1358 834q0 -369 -200 -615t-494 -246q-262 0 -402 167q-139 167 -139 440q0 368 200 614t494 246q261 0 401 -167
t140 -439z" />
    <glyph glyph-name="Oacute" unicode="&#xd3;" horiz-adv-x="1425" 
d="M1192 1790l-311 -260h-140l222 309zM1165 823q0 215 -93 335t-265 120q-213 0 -352 -197t-140 -491q-1 -215 93 -335t264 -120q215 1 354 197t139 491zM1358 834q0 -369 -200 -615t-494 -246q-262 0 -402 167q-139 167 -139 440q0 368 200 614t494 246q261 0 401 -167
t140 -439z" />
    <glyph glyph-name="Ocircumflex" unicode="&#xd4;" horiz-adv-x="1425" 
d="M1139 1534l-97 -21l-153 152l-203 -145h-119l252 288h172zM1165 823q0 215 -93 335t-265 120q-213 0 -352 -197t-140 -491q-1 -215 93 -335t264 -120q215 1 354 197t139 491zM1358 834q0 -369 -200 -615t-494 -246q-262 0 -402 167q-139 167 -139 440q0 368 200 614
t494 246q261 0 401 -167t140 -439z" />
    <glyph glyph-name="Otilde" unicode="&#xd5;" horiz-adv-x="1425" 
d="M743 1642q-45 0 -81 -104l-117 25q63 233 207 233q59 0 143 -49t119 -49q45 0 82 104l116 -24q-66 -233 -206 -234q-60 0 -144 49t-119 49zM1165 823q0 215 -93 335t-265 120q-213 0 -352 -197t-140 -491q-1 -215 93 -335t264 -120q215 1 354 197t139 491zM1358 834
q0 -369 -200 -615t-494 -246q-262 0 -402 167q-139 167 -139 440q0 368 200 614t494 246q261 0 401 -167t140 -439z" />
    <glyph glyph-name="Odieresis" unicode="&#xd6;" horiz-adv-x="1425" 
d="M778 1538h-203l33 207h203zM1145 1538h-203l33 207h203zM1165 823q0 215 -93 335t-265 120q-213 0 -352 -197t-140 -491q-1 -215 93 -335t264 -120q215 1 354 197t139 491zM1358 834q0 -369 -200 -615t-494 -246q-262 0 -402 167q-139 167 -139 440q0 368 200 614
t494 246q261 0 401 -167t140 -439z" />
    <glyph glyph-name="multiply" unicode="&#xd7;" horiz-adv-x="1024" 
d="M51 -410v2048h922v-2048h-922z" />
    <glyph glyph-name="Oslash" unicode="&#xd8;" horiz-adv-x="1425" 
d="M123 580q0 368 198 614t486 246q240 0 381 -137l117 129l163 -37l-190 -209q80 -145 80 -352q0 -369 -198 -615t-486 -246q-240 0 -381 136l-29 -31q-29 -33 -57 -66l-29 -30l-164 36l189 207q-80 147 -80 355zM799 1282q-209 0 -348 -200t-140 -502q0 -115 29 -207
l727 798q-94 111 -268 111zM680 131q211 0 350 201t139 502q1 112 -28 204l-727 -798q96 -109 266 -109z" />
    <glyph glyph-name="Ugrave" unicode="&#xd9;" horiz-adv-x="1304" 
d="M903 1483h-115l-233 260l219 49zM610 -27q-220 0 -347 114q-126 114 -126 331q0 63 15 153l133 842h188l-135 -852q-8 -55 -8 -125q0 -139 74 -216t219 -77q303 0 360 367l143 903h189l-150 -942q-41 -250 -188 -374t-367 -124z" />
    <glyph glyph-name="Uacute" unicode="&#xda;" horiz-adv-x="1304" 
d="M1145 1743l-311 -260h-140l221 309zM610 -27q-220 0 -347 114q-126 114 -126 331q0 63 15 153l133 842h188l-135 -852q-8 -55 -8 -125q0 -139 74 -216t219 -77q303 0 360 367l143 903h189l-150 -942q-41 -250 -188 -374t-367 -124z" />
    <glyph glyph-name="Ucircumflex" unicode="&#xdb;" horiz-adv-x="1304" 
d="M1096 1507l-97 -20l-153 151l-203 -145h-119l252 289h172zM610 -27q-220 0 -347 114q-126 114 -126 331q0 63 15 153l133 842h188l-135 -852q-8 -55 -8 -125q0 -139 74 -216t219 -77q303 0 360 367l143 903h189l-150 -942q-41 -250 -188 -374t-367 -124z" />
    <glyph glyph-name="Udieresis" unicode="&#xdc;" horiz-adv-x="1304" 
d="M735 1501h-203l33 207h203zM1102 1501h-203l33 207h203zM610 -27q-220 0 -347 114q-126 114 -126 331q0 63 15 153l133 842h188l-135 -852q-8 -55 -8 -125q0 -139 74 -216t219 -77q303 0 360 367l143 903h189l-150 -942q-41 -250 -188 -374t-367 -124z" />
    <glyph glyph-name="Yacute" unicode="&#xdd;" horiz-adv-x="1241" 
d="M1114 1735l-311 -260h-139l221 309zM1341 1413l-620 -852l-88 -561h-189l91 561l-342 825l194 41l268 -690l473 676h213z" />
    <glyph glyph-name="Thorn" unicode="&#xde;" horiz-adv-x="1054" 
d="M825 748q0 231 -284 231h-119l-80 -506h117q366 1 366 275zM1016 772q0 -215 -155 -341t-435 -126h-111l-47 -305h-188l223 1413h189l-43 -270h86q233 1 357 -95t124 -276z" />
    <glyph glyph-name="germandbls" unicode="&#xdf;" horiz-adv-x="1187" 
d="M722 129q208 0 208 189t-359 270v139q125 139 179 235t55 181q0 164 -141 164q-170 0 -207 -226l-226 -1435l-180 -27l189 1210h-138l25 148h137l19 117q29 182 135 274t258 92t232 -78q79 -78 79 -206q1 -128 -65 -240q-66 -111 -197 -246q189 -47 283 -133
q94 -87 94 -241t-106 -245t-268 -91q-163 0 -298 83l49 148q137 -82 243 -82z" />
    <glyph glyph-name="agrave" unicode="&#xe0;" horiz-adv-x="1009" 
d="M705 1120h-115l-234 260l219 50zM610 844q-145 0 -255 -146q-109 -146 -109 -356q0 -209 135 -209q111 0 289 197l75 491q-63 23 -135 23zM352 -20q-134 0 -210 86q-75 86 -74 245q0 301 168 489t397 189q135 0 307 -59l-106 -672v-258h-156l-10 162q-182 -182 -316 -182
z" />
    <glyph glyph-name="aacute" unicode="&#xe1;" horiz-adv-x="1009" 
d="M979 1380l-311 -260h-140l222 310zM610 844q-145 0 -255 -146q-109 -146 -109 -356q0 -209 135 -209q111 0 289 197l75 491q-63 23 -135 23zM352 -20q-134 0 -210 86q-75 86 -74 245q0 301 168 489t397 189q135 0 307 -59l-106 -672v-258h-156l-10 162
q-182 -182 -316 -182z" />
    <glyph glyph-name="acircumflex" unicode="&#xe2;" horiz-adv-x="1009" 
d="M903 1135l-96 -21l-154 152l-202 -146h-119l252 289h172zM610 844q-145 0 -255 -146q-109 -146 -109 -356q0 -209 135 -209q111 0 289 197l75 491q-63 23 -135 23zM352 -20q-134 0 -210 86q-75 86 -74 245q0 301 168 489t397 189q135 0 307 -59l-106 -672v-258h-156
l-10 162q-182 -182 -316 -182z" />
    <glyph glyph-name="atilde" unicode="&#xe3;" horiz-adv-x="1009" 
d="M508 1225q-45 0 -82 -105l-117 25q63 233 207 233q59 0 143 -49t119 -49q45 0 82 104l117 -24q-63 -233 -207 -234q-59 0 -143 50t-119 49zM610 844q-145 0 -255 -146q-109 -146 -109 -356q0 -209 135 -209q111 0 289 197l75 491q-63 23 -135 23zM352 -20q-134 0 -210 86
q-75 86 -74 245q0 301 168 489t397 189q135 0 307 -59l-106 -672v-258h-156l-10 162q-182 -182 -316 -182z" />
    <glyph glyph-name="adieresis" unicode="&#xe4;" horiz-adv-x="1009" 
d="M543 1128h-203l33 207h202zM909 1128h-202l32 207h203zM610 844q-145 0 -255 -146q-109 -146 -109 -356q0 -209 135 -209q111 0 289 197l75 491q-63 23 -135 23zM352 -20q-134 0 -210 86q-75 86 -74 245q0 301 168 489t397 189q135 0 307 -59l-106 -672v-258h-156
l-10 162q-182 -182 -316 -182z" />
    <glyph glyph-name="aring" unicode="&#xe5;" horiz-adv-x="1009" 
d="M768 1325q0 51 -34 87t-84 36t-84 -35t-34 -87t34 -87t84 -35t84 35t34 86zM862 1325q0 -92 -59 -150q-59 -59 -151 -59t-153 58t-61 150q0 90 60 152t153 62q92 0 152 -60q59 -61 59 -153zM610 844q-145 0 -255 -146q-109 -146 -109 -356q0 -209 135 -209q111 0 289 197
l75 491q-63 23 -135 23zM352 -20q-134 0 -210 86q-75 86 -74 245q0 301 168 489t397 189q135 0 307 -59l-106 -672v-258h-156l-10 162q-182 -182 -316 -182z" />
    <glyph glyph-name="ae" unicode="&#xe6;" horiz-adv-x="1499" 
d="M219 240q0 -111 118 -111t306 150q-8 41 -8 105t8 118q-242 -28 -333 -96t-91 -166zM295 -20q-115 0 -185 64t-69 183q0 348 629 402l6 35q31 182 -148 182q-127 0 -309 -86v160q188 78 334 77q217 0 270 -131q121 131 277 131t242 -100t88 -276q0 -80 -15 -152h-598
q-4 -49 -4 -76q0 -264 227 -264q147 0 322 127v-164q-164 -113 -350 -112q-234 0 -328 174q-213 -174 -389 -174zM1092 864q-80 0 -149 -70q-68 -71 -101 -192h413q10 262 -163 262z" />
    <glyph glyph-name="ccedilla" unicode="&#xe7;" horiz-adv-x="872" 
d="M547 -152l-287 -221h-131l201 273zM561 840q-121 0 -216 -132t-95 -311q0 -125 61 -193t176 -69q115 0 248 92v-166q-129 -81 -291 -81t-268 107q-104 108 -104 298q0 252 144 432t355 180q162 0 289 -84l-55 -165q-123 92 -244 92z" />
    <glyph glyph-name="egrave" unicode="&#xe8;" horiz-adv-x="933" 
d="M248 385q0 -256 227 -256q147 0 322 127v-164q-163 -112 -343 -112t-282 101t-102 294q0 274 140 448t325 174q157 0 243 -100t86 -276q0 -80 -14 -152h-598q-4 -53 -4 -84zM526 864q-80 0 -148 -70t-102 -192h414q10 262 -164 262zM641 1120h-115l-233 260l219 50z" />
    <glyph glyph-name="eacute" unicode="&#xe9;" horiz-adv-x="933" 
d="M248 385q0 -256 227 -256q147 0 322 127v-164q-163 -112 -343 -112t-282 101t-102 294q0 274 140 448t325 174q157 0 243 -100t86 -276q0 -80 -14 -152h-598q-4 -53 -4 -84zM526 864q-80 0 -148 -70t-102 -192h414q10 262 -164 262zM926 1380l-312 -260h-139l221 310z
" />
    <glyph glyph-name="ecircumflex" unicode="&#xea;" horiz-adv-x="933" 
d="M248 385q0 -256 227 -256q147 0 322 127v-164q-163 -112 -343 -112t-282 101t-102 294q0 274 140 448t325 174q157 0 243 -100t86 -276q0 -80 -14 -152h-598q-4 -53 -4 -84zM526 864q-80 0 -148 -70t-102 -192h414q10 262 -164 262zM854 1135l-96 -21l-154 152l-203 -146
h-118l252 289h172z" />
    <glyph glyph-name="edieresis" unicode="&#xeb;" horiz-adv-x="933" 
d="M248 385q0 -256 227 -256q147 0 322 127v-164q-163 -112 -343 -112t-282 101t-102 294q0 274 140 448t325 174q157 0 243 -100t86 -276q0 -80 -14 -152h-598q-4 -53 -4 -84zM526 864q-80 0 -148 -70t-102 -192h414q10 262 -164 262zM494 1128h-203l33 207h202zM860 1128
h-203l33 207h203z" />
    <glyph glyph-name="igrave" unicode="&#xec;" horiz-adv-x="471" 
d="M399 977l-153 -977h-176l153 977h176zM399 1120h-108l-197 260l197 50z" />
    <glyph glyph-name="iacute" unicode="&#xed;" horiz-adv-x="471" 
d="M399 977l-153 -977h-176l153 977h176zM659 1380l-264 -260h-129l189 310z" />
    <glyph glyph-name="icircumflex" unicode="&#xee;" horiz-adv-x="471" 
d="M399 977l-153 -977h-176l153 977h176zM588 1135l-86 -21l-137 152l-185 -146h-106l233 289h154z" />
    <glyph glyph-name="idieresis" unicode="&#xef;" horiz-adv-x="471" 
d="M399 977l-153 -977h-176l153 977h176zM266 1128h-182l33 207h182zM592 1128h-182l32 207h183z" />
    <glyph glyph-name="eth" unicode="&#xf0;" horiz-adv-x="1040" 
d="M973 758q-1 -195 -63 -369t-180 -292q-118 -117 -282 -117t-266 108t-102 314t127 362t317 156q152 0 281 -123q-7 209 -109 338l-78 -97h-155q2 2 6 8t16 20q11 14 23 30t27 34q14 18 26 34l45 57q-76 57 -200 104l24 156q158 -51 272 -135l105 133l143 -29l-153 -190
q176 -188 176 -502zM520 778q-118 0 -190 -114t-72 -262q0 -146 53 -216t150 -69q119 1 214 149t122 363q-70 81 -133 115t-144 34z" />
    <glyph glyph-name="ntilde" unicode="&#xf1;" horiz-adv-x="1013" 
d="M489 1225q-45 0 -81 -105l-117 25q66 233 207 233q59 0 143 -49t119 -49q45 0 82 104l116 -24q-66 -233 -206 -234q-60 0 -144 50t-119 49zM932 778q0 -37 -4 -73l-113 -705h-176l106 666q4 37 5 55q0 119 -101 119q-55 0 -142 -68t-173 -176l-92 -596h-176l116 743v234
h158l10 -195q197 215 352 215q110 1 170 -57t60 -162z" />
    <glyph glyph-name="ograve" unicode="&#xf2;" horiz-adv-x="1001" 
d="M664 1120h-115l-234 260l220 50zM752 558q0 158 -56 228t-149 70q-135 0 -216 -139t-81 -299t55 -230t150 -69q135 0 216 140q81 141 81 299zM930 580q0 -250 -138 -425t-350 -175q-170 0 -270 110t-100 305q0 250 138 426t347 176q173 0 273 -110t100 -307z" />
    <glyph glyph-name="oacute" unicode="&#xf3;" horiz-adv-x="1001" 
d="M752 558q0 158 -56 228t-149 70q-135 0 -216 -139t-81 -299t55 -230t150 -69q135 0 216 140q81 141 81 299zM930 580q0 -250 -138 -425t-350 -175q-170 0 -270 110t-100 305q0 250 138 426t347 176q173 0 273 -110t100 -307zM971 1380l-312 -260h-139l221 310z" />
    <glyph glyph-name="ocircumflex" unicode="&#xf4;" horiz-adv-x="1001" 
d="M877 1135l-97 -21l-153 152l-203 -146h-119l252 289h172zM752 558q0 158 -56 228t-149 70q-135 0 -216 -139t-81 -299t55 -230t150 -69q135 0 216 140q81 141 81 299zM930 580q0 -250 -138 -425t-350 -175q-170 0 -270 110t-100 305q0 250 138 426t347 176
q173 0 273 -110t100 -307z" />
    <glyph glyph-name="otilde" unicode="&#xf5;" horiz-adv-x="1001" 
d="M481 1225q-45 0 -82 -105l-116 25q66 233 206 233q59 0 143 -49t120 -49q45 0 82 104l116 -24q-66 -233 -207 -234q-59 0 -143 50t-119 49zM752 558q0 158 -56 228t-149 70q-135 0 -216 -139t-81 -299t55 -230t150 -69q135 0 216 140q81 141 81 299zM930 580
q0 -250 -138 -425t-350 -175q-170 0 -270 110t-100 305q0 250 138 426t347 176q173 0 273 -110t100 -307z" />
    <glyph glyph-name="odieresis" unicode="&#xf6;" horiz-adv-x="1001" 
d="M516 1128h-203l33 207h203zM883 1128h-203l33 207h202zM752 558q0 158 -56 228t-149 70q-135 0 -216 -139t-81 -299t55 -230t150 -69q135 0 216 140q81 141 81 299zM930 580q0 -250 -138 -425t-350 -175q-170 0 -270 110t-100 305q0 250 138 426t347 176q173 0 273 -110
t100 -307z" />
    <glyph glyph-name="divide" unicode="&#xf7;" horiz-adv-x="1171" 
d="M643 209h-201l35 219h201zM1081 616h-950l25 152h950zM760 956h-201l35 220h201z" />
    <glyph glyph-name="oslash" unicode="&#xf8;" horiz-adv-x="1001" 
d="M72 395q0 250 138 426t347 176q145 0 238 -79l67 75l146 -32l-129 -146q51 -98 51 -235q0 -250 -138 -425t-350 -175q-143 0 -237 77l-68 -73l-145 32l129 146q-49 102 -49 233zM555 862q-143 0 -228 -138t-85 -306q0 -60 10 -117l442 504q-51 57 -139 57zM446 113
q143 0 229 140q85 140 85 314q0 56 -10 111q-442 -506 -445 -506q53 -59 141 -59z" />
    <glyph glyph-name="ugrave" unicode="&#xf9;" horiz-adv-x="1013" 
d="M657 1120h-114l-234 260l219 50zM831 0h-157l-10 195q-197 -215 -353 -215q-111 0 -170 57t-59 162q0 37 4 73l113 705h176l-107 -666q-4 -37 -4 -55q0 -119 101 -119q55 0 142 68t173 176l92 596h176l-117 -744v-233z" />
    <glyph glyph-name="uacute" unicode="&#xfa;" horiz-adv-x="1013" 
d="M944 1380l-311 -260h-139l221 310zM831 0h-157l-10 195q-197 -215 -353 -215q-111 0 -170 57t-59 162q0 37 4 73l113 705h176l-107 -666q-4 -37 -4 -55q0 -119 101 -119q55 0 142 68t173 176l92 596h176l-117 -744v-233z" />
    <glyph glyph-name="ucircumflex" unicode="&#xfb;" horiz-adv-x="1013" 
d="M887 1135l-96 -21l-154 152l-203 -146h-119l252 289h172zM831 0h-157l-10 195q-197 -215 -353 -215q-111 0 -170 57t-59 162q0 37 4 73l113 705h176l-107 -666q-4 -37 -4 -55q0 -119 101 -119q55 0 142 68t173 176l92 596h176l-117 -744v-233z" />
    <glyph glyph-name="udieresis" unicode="&#xfc;" horiz-adv-x="1013" 
d="M530 1128h-202l32 207h203zM897 1128h-203l33 207h203zM831 0h-157l-10 195q-197 -215 -353 -215q-111 0 -170 57t-59 162q0 37 4 73l113 705h176l-107 -666q-4 -37 -4 -55q0 -119 101 -119q55 0 142 68t173 176l92 596h176l-117 -744v-233z" />
    <glyph glyph-name="yacute" unicode="&#xfd;" horiz-adv-x="921" 
d="M911 1362l-311 -260h-139l221 309zM72 -219q100 0 161 110l70 127l-182 945l178 28l125 -766l348 752h182l-540 -1081q-76 -152 -161 -210t-212 -59q-27 0 -64 8v156q51 -10 95 -10z" />
    <glyph glyph-name="thorn" unicode="&#xfe;" horiz-adv-x="1032" 
d="M788 621q0 223 -157 223q-115 0 -283 -172l-80 -508q66 -29 158 -29q143 0 253 131q109 132 109 355zM967 651q0 -297 -166 -480t-389 -183q-86 0 -168 22l-58 -364l-180 -27l287 1831l182 29l-98 -621q147 139 287 139t222 -90q81 -90 81 -256z" />
    <glyph glyph-name="ydieresis" unicode="&#xff;" horiz-adv-x="921" 
d="M479 1128h-203l33 207h203zM846 1128h-203l33 207h203zM72 -219q100 0 161 110l70 127l-182 945l178 28l125 -766l348 752h182l-540 -1081q-76 -152 -161 -210t-212 -59q-27 0 -64 8v156q51 -10 95 -10z" />
    <glyph glyph-name="dotlessi" unicode="&#x131;" horiz-adv-x="471" 
d="M399 977l-153 -977h-176l153 977h176z" />
    <glyph glyph-name="Lslash" unicode="&#x141;" horiz-adv-x="950" 
d="M819 0h-680l101 637l-158 -33v168l186 39l94 602h189l-90 -561l340 70l-27 -172l-340 -72l-80 -510h465v-168z" />
    <glyph glyph-name="lslash" unicode="&#x142;" horiz-adv-x="591" 
d="M420 711l-113 -711h-178l107 674l-160 -35l-4 160l190 39l96 612l183 29l-95 -605l179 37l-27 -163z" />
    <glyph glyph-name="OE" unicode="&#x152;" horiz-adv-x="1679" 
d="M954 1247q-292 0 -460 -171t-168 -480q0 -213 114 -322t330 -108h61l170 1081h-47zM1524 825v-172h-428l-78 -485h538l-26 -168h-780q-291 0 -455 151t-164 424q1 389 235 613t611 225h758l-27 -168h-520l-66 -420h402z" />
    <glyph glyph-name="oe" unicode="&#x153;" horiz-adv-x="1601" 
d="M442 -20q-170 0 -270 110t-100 305q0 250 138 426t358 176t304 -194q131 195 330 194q156 0 243 -100t87 -276q0 -80 -14 -152h-598q-4 -53 -5 -84q0 -256 228 -256q147 0 321 127v-164q-164 -113 -350 -112q-237 0 -321 186q-133 -186 -351 -186zM752 560q0 160 -56 228
t-149 68q-137 0 -217 -141t-80 -300t55 -228t150 -68q137 1 217 141t80 300zM1194 864q-80 0 -148 -70t-102 -192h414q10 262 -164 262z" />
    <glyph glyph-name="Scaron" unicode="&#x160;" horiz-adv-x="1030" 
d="M995 1819l-250 -289h-172l-147 274l98 21l154 -152l199 146h118zM651 1272q-131 0 -189 -60t-58 -140q0 -79 46 -132q48 -53 196 -140t212 -179q66 -92 66 -215q0 -201 -134 -314q-134 -112 -344 -112t-399 118l53 178q184 -135 371 -135q115 0 189 65t73 159
q0 94 -42 145q-41 51 -187 140t-218 174t-73 210q0 174 122 287q123 113 321 113t339 -99l-53 -176q-160 113 -291 113z" />
    <glyph glyph-name="scaron" unicode="&#x161;" horiz-adv-x="794" 
d="M823 1409l-250 -289h-172l-147 275l98 20l154 -151l199 145h118zM438 842q-68 0 -106 -33t-39 -79q0 -46 30 -75q29 -29 147 -80t181 -115t64 -171q1 -147 -99 -229t-274 -80q-174 0 -332 112l53 160q156 -119 320 -119q74 0 119 36t45 90t-35 88q-36 33 -152 87
t-176 113q-59 59 -59 175t91 196t240 80t296 -78l-54 -164q-129 86 -260 86z" />
    <glyph glyph-name="Ydieresis" unicode="&#x178;" horiz-adv-x="1241" 
d="M692 1501h-203l33 207h203zM1059 1501h-203l33 207h203zM1341 1413l-620 -852l-88 -561h-189l91 561l-342 825l194 41l268 -690l473 676h213z" />
    <glyph glyph-name="Zcaron" unicode="&#x17d;" horiz-adv-x="1181" 
d="M1073 1800l-250 -289h-172l-147 275l98 20l154 -151l198 145h119zM1020 162v-162h-997l22 137l924 1114h-688v162h944l-23 -137l-923 -1114h741z" />
    <glyph glyph-name="zcaron" unicode="&#x17e;" horiz-adv-x="888" 
d="M872 1409l-249 -289h-172l-148 275l98 20l154 -151l199 145h118zM737 145v-145h-743l22 137l619 694h-461v146h694l-24 -137l-617 -695h510z" />
    <glyph glyph-name="florin" unicode="&#x192;" horiz-adv-x="735" 
d="M662 1241q-125 0 -150 -143l-29 -170h187v-152h-211l-123 -776h-182l125 776h-144l25 152h143l29 184q22 152 102 220t232 69q49 0 90 -4v-162q-45 6 -94 6z" />
    <glyph glyph-name="circumflex" unicode="&#x2c6;" 
d="M846 1135l-96 -21l-154 152l-203 -146h-119l252 289h172z" />
    <glyph glyph-name="caron" unicode="&#x2c7;" 
d="M901 1409l-250 -289h-172l-147 275l98 20l154 -151l198 145h119z" />
    <glyph glyph-name="breve" unicode="&#x2d8;" 
d="M575 1122q-123 0 -185 79t-44 202l129 27q-6 -156 123 -156q113 0 158 145h125q-19 -139 -101 -218t-205 -79z" />
    <glyph glyph-name="dotaccent" unicode="&#x2d9;" 
d="M670 1128h-205l33 207h204z" />
    <glyph glyph-name="ring" unicode="&#x2da;" 
d="M711 1325q0 51 -34 87t-84 36t-84 -35t-34 -87t34 -87t84 -35t84 35t34 86zM805 1325q1 -92 -59 -150q-60 -59 -152 -59t-152 58t-61 150q0 90 60 152q61 62 153 62t152 -60t59 -153z" />
    <glyph glyph-name="ogonek" unicode="&#x2db;" 
d="M537 -373h-115l-215 221l221 52z" />
    <glyph glyph-name="tilde" unicode="&#x2dc;" 
d="M451 1225q-45 0 -82 -105l-117 25q63 233 207 233q59 0 143 -49t119 -49q45 0 82 104l117 -24q-63 -233 -207 -234q-59 0 -143 50t-119 49z" />
    <glyph glyph-name="hungarumlaut" unicode="&#x2dd;" 
d="M629 1384l-305 -256h-113l219 302zM956 1384l-305 -256h-114l221 302z" />
    <glyph glyph-name="Delta" unicode="&#x394;" horiz-adv-x="1024" 
d="M51 -410v2048h922v-2048h-922z" />
    <glyph glyph-name="Omega" unicode="&#x3a9;" horiz-adv-x="1204" 
d="M1219 1311q-121 0 -144 -140l-33 -194h183v-148h-205l-186 -1183l-181 -27l189 1210h-137l24 148h137l37 225q23 135 99 197q77 61 221 61q43 0 84 -4v-151q-55 6 -88 6zM616 1311q-121 0 -143 -140l-33 -194h183v-148h-207l-185 -1183l-180 -27l189 1210h-138l25 148
h137l37 225q23 135 99 197q77 61 218 61q45 0 87 -4v-151q-55 6 -89 6z" />
    <glyph glyph-name="pi" unicode="&#x3c0;" horiz-adv-x="1636" 
d="M1012 868q0 123 -152 123h-94v-246h90q156 0 156 123zM866 1114q131 0 207 -64t76 -182q0 -119 -79 -182t-218 -63h-86v-316h-137v807h237zM1468 707q0 309 -174 484t-444 175t-443 -175t-173 -484t174 -485t444 -175q270 -1 443 175t173 485zM1559 709q0 -328 -198 -532
t-512 -204t-510 202t-196 530q0 327 198 531t512 204t510 -202t196 -529z" />
    <glyph glyph-name="endash" unicode="&#x2013;" 
d="M819 496h-706l26 172h707z" />
    <glyph glyph-name="emdash" unicode="&#x2014;" horiz-adv-x="1859" 
d="M1749 498h-1636l26 168h1637z" />
    <glyph glyph-name="quoteleft" unicode="&#x2018;" horiz-adv-x="464" 
d="M168 952l244 478l98 -25l-131 -453h-211z" />
    <glyph glyph-name="quoteright" unicode="&#x2019;" horiz-adv-x="464" 
d="M514 1413l-244 -477l-98 25l131 452h211z" />
    <glyph glyph-name="quotesinglbase" unicode="&#x201a;" horiz-adv-x="464" 
d="M324 244l-244 -477l-98 24l131 453h211z" />
    <glyph glyph-name="quotedblleft" unicode="&#x201c;" horiz-adv-x="837" 
d="M541 952l243 478l99 -25l-131 -453h-211zM168 952l244 478l98 -25l-131 -453h-211z" />
    <glyph glyph-name="quotedblright" unicode="&#x201d;" horiz-adv-x="837" 
d="M887 1413l-244 -477l-98 25l131 452h211zM514 1413l-244 -477l-98 25l131 452h211z" />
    <glyph glyph-name="quotedblbase" unicode="&#x201e;" horiz-adv-x="837" 
d="M696 244l-243 -477l-99 24l131 453h211zM324 244l-244 -477l-98 24l131 453h211z" />
    <glyph glyph-name="dagger" unicode="&#x2020;" horiz-adv-x="1021" 
d="M365 -233v268l86 536l77 244h70v-244l-84 -536l-86 -268h-63zM489 860l-284 -43h-60l25 156h59l269 -45zM981 817h-59l-269 43l9 68l284 45h60zM553 975v276l25 162h159l-24 -162l-90 -276h-70z" />
    <glyph glyph-name="daggerdbl" unicode="&#x2021;" horiz-adv-x="1060" 
d="M496 68v-279l-23 -162h-160l25 162l88 279h70zM387 113l-283 -43h-59l25 155h59l268 -45zM881 70h-60l-270 43l10 67l285 45h59zM453 227v244l14 100l78 244h71v-244l-16 -100l-78 -244h-69zM506 860l-285 -43h-59l24 156h60l270 -45zM999 817h-59l-270 43l10 68l283 45
h59zM571 975v276l25 162h160l-27 -162l-88 -276h-70z" />
    <glyph glyph-name="bullet" unicode="&#x2022;" horiz-adv-x="862" 
d="M737 707l-39 -252l-231 -37l-231 37l-41 252l41 254l231 34l231 -34z" />
    <glyph glyph-name="ellipsis" unicode="&#x2026;" horiz-adv-x="1486" 
d="M276 0h-204l39 244h204zM770 0h-205l39 244h205zM1264 0h-205l39 244h205z" />
    <glyph glyph-name="perthousand" unicode="&#x2030;" horiz-adv-x="1636" 
d="M834 1004h-95v-261h90q74 0 116 34t42 95q1 60 -39 96t-114 36zM739 627v-310h-137v807h236q131 0 210 -66t78 -181q1 -169 -157 -226l233 -311l-145 -33l-234 320h-84zM1468 707q0 309 -174 484t-444 175t-443 -175t-173 -484t174 -485t444 -175q270 -1 443 175t173 485
zM1559 709q0 -328 -198 -532t-512 -204t-510 202t-196 530q0 327 198 531t512 204t510 -202t196 -529z" />
    <glyph glyph-name="guilsinglleft" unicode="&#x2039;" horiz-adv-x="657" 
d="M645 977l-379 -498l209 -456l-147 -33l-256 499l399 488h174z" />
    <glyph glyph-name="guilsinglright" unicode="&#x203a;" horiz-adv-x="657" 
d="M12 0l381 496l-211 458l150 33l254 -500l-398 -487h-176z" />
    <glyph glyph-name="fraction" unicode="&#x2044;" 
d="M1270 1569l-1383 -1790l-166 37l1383 1790z" />
    <glyph glyph-name="trademark" unicode="&#x2122;" horiz-adv-x="1636" 
d="M508 1303v-596h-123v596h-221v110h553l18 -110h-227zM1624 707h-123l-39 491l-200 -493h-97l-200 493l-41 -491h-119l55 706h146l211 -528l208 528h142z" />
    <glyph glyph-name="partialdiff" unicode="&#x2202;" horiz-adv-x="1425" 
d="M123 580q0 368 200 614t494 246q261 0 401 -167t140 -439q0 -342 -178 -586l114 -101l-63 -176l-170 150q-176 -147 -397 -148q-262 0 -402 167q-139 167 -139 440zM807 1278q-213 0 -352 -197t-140 -491q-1 -215 93 -335t250 -120t276 96l-303 261l225 45l191 -172
q119 188 118 458q0 215 -93 335t-265 120z" />
    <glyph glyph-name="product" unicode="&#x220f;" horiz-adv-x="1024" 
d="M51 -410v2048h922v-2048h-922z" />
    <glyph glyph-name="summation" unicode="&#x2211;" horiz-adv-x="2011" 
d="M1065 795l-422 -801h-162l-282 1392l194 41l215 -1167l404 776l-78 350l194 41l234 -1167l539 1153h202l-700 -1419h-162z" />
    <glyph glyph-name="minus" unicode="&#x2212;" horiz-adv-x="1024" 
d="M51 -410v2048h922v-2048h-922z" />
    <glyph glyph-name="radical" unicode="&#x221a;" horiz-adv-x="1675" 
d="M1686 1479l-236 -1479h-176l229 1450zM1219 1311q-121 0 -144 -140l-33 -194h183v-148h-205l-186 -1183l-181 -27l189 1210h-137l24 148h137l37 225q23 135 99 197q77 61 221 61q43 0 84 -4v-151q-55 6 -88 6zM616 1311q-121 0 -143 -140l-33 -194h183v-148h-207
l-185 -1183l-180 -27l189 1210h-138l25 148h137l37 225q23 135 99 197q77 61 218 61q45 0 87 -4v-151q-55 6 -89 6z" />
    <glyph glyph-name="infinity" unicode="&#x221e;" horiz-adv-x="954" 
d="M41 227q0 165 147 269t492 133l6 35q29 182 -147 182q-137 0 -320 -86v160q188 78 344 77q352 0 297 -346l-74 -448v-203h-157l-11 137q-186 -158 -333 -157q-109 0 -177 64t-67 183zM219 240q0 -113 117 -113q102 0 282 143l41 232q-250 -26 -345 -94t-95 -168z" />
    <glyph glyph-name="integral" unicode="&#x222b;" horiz-adv-x="1001" 
d="M459 326q-47 0 -86 8q-49 -35 -49 -64t32 -44t127 -38l84 -20q145 -35 214 -91t69 -149q0 -137 -125 -219t-332 -82t-333 65t-126 175q0 83 56 149t188 127q-41 41 -41 86q0 78 119 148q-133 81 -133 241t113 268q114 108 274 108t256 -85l262 82v-164l-188 -20
q23 -55 22 -115q0 -160 -119 -263t-284 -103zM690 680q0 90 -49 138t-140 48t-149 -70q-57 -71 -57 -159t47 -136t139 -48t151 68q58 69 58 159zM111 -102q1 -66 75 -102t209 -36t210 41t75 101q0 42 -35 68t-127 48l-125 31q-65 17 -92 29q-92 -39 -141 -87t-49 -93z" />
    <glyph glyph-name="approxequal" unicode="&#x2248;" horiz-adv-x="1675" 
d="M1606 977l-156 -977h-176l153 977h179zM1683 1294q1 -47 -33 -80q-34 -32 -81 -32t-80 32t-33 80q0 47 33 80t80 33t81 -33t33 -80zM1219 1311q-121 0 -144 -140l-33 -194h183v-148h-205l-186 -1183l-181 -27l189 1210h-137l24 148h137l37 225q23 135 99 197
q77 61 221 61q43 0 84 -4v-151q-55 6 -88 6zM616 1311q-121 0 -143 -140l-33 -194h183v-148h-207l-185 -1183l-180 -27l189 1210h-138l25 148h137l37 225q23 135 99 197q77 61 218 61q45 0 87 -4v-151q-55 6 -89 6z" />
    <glyph glyph-name="notequal" unicode="&#x2260;" horiz-adv-x="1011" 
d="M903 430q0 -211 -139 -334q-140 -123 -354 -123t-408 115l55 164q180 -119 338 -119t243 80t85 207q0 242 -330 242h-61v129l442 432h-549v161h811l-22 -139l-465 -448q354 -43 354 -367z" />
    <glyph glyph-name="lessequal" unicode="&#x2264;" horiz-adv-x="1708" 
d="M1470 0h-174l177 1124l-633 -1130h-144l-272 1130l-176 -1124h-168l223 1413h236l276 -1159l643 1159h236z" />
    <glyph glyph-name="greaterequal" unicode="&#x2265;" horiz-adv-x="1343" 
d="M948 0v162q-125 -88 -228 -133t-218 -45q-365 0 -365 323q0 47 10 123l156 983h189l-152 -958q-8 -47 -8 -99q0 -106 51 -155t160 -49q180 0 420 192l170 1069h188l-223 -1413h-150z" />
    <glyph glyph-name="lozenge" unicode="&#x25ca;" horiz-adv-x="1636" 
d="M672 894q0 -90 -63 -144t-173 -54t-196 52l14 118q106 -66 190 -65q49 -1 81 23t32 66t-26 68t-114 66q-87 39 -129 83t-42 127t62 136t164 53t171 -43l-20 -116q-85 55 -145 55t-89 -22q-29 -23 -29 -59t25 -60t114 -63q89 -40 131 -86t42 -135zM1624 707h-123l-39 491
l-200 -493h-97l-200 493l-41 -491h-119l55 706h146l211 -528l208 528h142z" />
    <glyph glyph-name="apple" unicode="&#xf8ff;" horiz-adv-x="1421" 
d="M598 884q0 -92 68 -90q32 0 51 50h2l24 -49l23 16l-33 61q20 47 27 80l-27 6q-4 -18 -18 -61l-33 64q47 43 47 77q0 72 -55 72q-25 0 -41 -19q-17 -19 -17 -45t29 -79q-47 -37 -47 -83zM872 580q-31 0 -30 34q0 12 9 24t22 11q13 0 23 -11q10 -10 9 -24q1 -14 -9 -24
t-24 -10zM999 612h-24v35h22q20 0 21 -16q-1 -19 -19 -19zM664 823q-35 1 -35 47t30 76l41 -80q-12 -43 -36 -43zM645 1056q0 30 29 29q27 -1 27 -35t-31 -69q-25 45 -25 75zM494 662l30 -97h17l20 70h2l23 -70h16l29 97h-17l-20 -72h-2l-21 72h-16l-23 -72h-2l-20 72h-16z
M270 662v-95h17v66l51 -66h14v95h-16v-66l-51 66h-15zM395 662v-95h68v15h-51v26h45v15h-45v24h51v15h-68zM750 567h16v35l37 60h-19l-26 -46l-27 46h-18l37 -60v-35zM874 565q22 0 34 15q32 34 0 68q-14 16 -36 16q-20 0 -33 -16t-13 -34q0 -20 12 -34q14 -14 36 -15z
M1034 626q0 34 -33 36h-43v-95h17v31h24l21 -31h18l-24 35q20 6 20 24zM1071 662v-95h16v27l15 14l33 -41h18l-39 54l37 41h-21l-43 -50v50h-16zM985 799q63 0 64 73v281h-33v-281q0 -45 -33 -45q-20 0 -41 13v-33q16 -8 43 -8zM377 1153v-352h31v162h96v-162h31v352h-31
v-162h-96v162h-31zM819 1153v-352h31v160h78v28h-78v135h88v29h-119zM1319 -410h-426l-16 29h-334l-17 -29h-424v621q29 0 48 19q18 19 18 46q0 26 -20 46t-46 20v1135h205l62 161h684l59 -161h207v-1887z" />
    <glyph glyph-name="fi" unicode="&#xfb01;" horiz-adv-x="1073" 
d="M1001 977l-153 -977h-176l153 977h176zM1081 1294q1 -47 -33 -80q-34 -32 -81 -32t-80 32t-33 80q0 47 33 80t80 33t81 -33t33 -80zM616 1311q-121 0 -143 -140l-33 -194h183v-148h-207l-185 -1183l-180 -27l189 1210h-138l25 148h137l37 225q23 135 99 197q77 61 218 61
q45 0 87 -4v-151q-55 6 -89 6z" />
    <glyph glyph-name="fl" unicode="&#xfb02;" horiz-adv-x="1073" 
d="M1081 1479l-233 -1479h-176l227 1450zM616 1311q-121 0 -143 -140l-33 -194h183v-148h-207l-185 -1183l-180 -27l189 1210h-138l25 148h137l37 225q23 135 99 197q77 61 218 61q45 0 87 -4v-151q-55 6 -89 6z" />
    <glyph glyph-name="NUL" horiz-adv-x="0" 
 />
    </font>
</defs>
</svg>
